<?xml version="1.0" standalone="no"?>
<!DOCTYPE svg PUBLIC "-//W3C//DTD SVG 20010904//EN"
 "http://www.w3.org/TR/2001/REC-SVG-20010904/DTD/svg10.dtd">
<svg version="1.0" xmlns="http://www.w3.org/2000/svg"
 width="1581.000000pt" height="1054.000000pt" viewBox="0 0 1581.000000 1054.000000"
 preserveAspectRatio="xMidYMid meet">

<g transform="translate(0.000000,1054.000000) scale(0.100000,-0.100000)"
fill="#000000" stroke="none">
<path d="M0 7531 l0 -3009 57 -7 c124 -15 264 -64 305 -106 39 -40 56 -86 63
-174 18 -233 14 -354 -14 -420 -5 -11 -17 -49 -26 -85 -33 -127 -71 -185 -157
-234 -58 -33 -121 -45 -182 -36 l-46 7 0 -140 c0 -132 2 -143 27 -196 15 -31
37 -70 49 -88 37 -56 65 -195 59 -293 -7 -101 -22 -185 -40 -220 -7 -14 -16
-48 -20 -75 -4 -28 -15 -62 -26 -77 -10 -15 -19 -33 -19 -40 0 -7 -7 -22 -15
-32 -13 -17 -15 -173 -15 -1163 l0 -1143 4570 0 4570 0 0 22 c0 37 -70 415
-105 569 -116 505 -331 1049 -564 1428 l-83 134 -9 116 c-4 64 -9 151 -9 194
0 47 -6 92 -15 114 -9 20 -13 44 -9 52 4 9 8 48 9 86 2 58 9 84 40 150 38 80
41 87 44 104 4 32 131 131 131 103 0 -4 14 -13 31 -19 27 -10 38 -9 70 6 49
24 150 31 173 12 29 -24 17 3 -40 89 -80 120 -163 220 -274 331 -119 117 -138
126 -230 110 -38 -7 -74 -19 -80 -27 -15 -17 -47 -22 -194 -28 -125 -5 -139 3
-43 23 61 13 63 15 45 58 -6 15 -10 34 -9 40 5 32 -32 5 -130 -96 -155 -159
-459 -510 -459 -530 0 -13 159 -15 193 -2 42 16 67 13 85 -9 21 -24 77 -36 68
-14 -9 24 11 16 29 -13 56 -85 125 -343 125 -468 0 -24 3 -46 8 -48 4 -3 7
-90 7 -194 l0 -188 -38 -114 c-20 -62 -58 -197 -83 -300 -25 -102 -54 -222
-65 -266 -61 -250 -64 -288 -63 -748 0 -235 -3 -424 -7 -420 -4 4 -17 53 -29
108 -30 137 -77 304 -170 605 -97 315 -166 555 -220 770 -23 91 -57 219 -75
285 -39 140 -142 540 -148 576 -2 13 -11 49 -20 79 -20 70 -79 288 -162 595
-35 132 -80 287 -100 345 -20 58 -49 155 -65 215 -16 61 -56 192 -89 291 -132
396 -160 612 -97 761 28 67 66 201 66 233 0 21 20 29 20 8 1 -7 26 -33 57 -58
53 -43 127 -124 149 -164 6 -11 16 -22 24 -24 7 -3 10 0 6 6 -3 6 -2 13 3 17
6 3 17 -8 26 -25 8 -16 22 -30 31 -30 9 0 25 -23 39 -55 17 -37 29 -53 38 -49
8 3 28 -9 45 -25 17 -17 34 -31 39 -31 4 0 14 -9 21 -20 14 -24 42 -27 42 -4
0 8 5 12 10 9 7 -4 7 -12 0 -25 -13 -24 -13 -33 0 -25 6 3 10 -3 10 -14 0 -17
6 -21 35 -21 31 0 35 -3 41 -34 5 -31 10 -35 45 -41 53 -9 99 -33 99 -51 0
-13 -2 -13 -16 0 -24 24 -52 37 -58 27 -8 -12 52 -56 87 -65 15 -3 26 -10 23
-15 -6 -9 30 -42 37 -34 3 3 11 -13 17 -35 7 -28 18 -43 33 -48 39 -12 79 -72
79 -118 0 -26 5 -37 19 -41 10 -4 19 -11 19 -16 0 -5 6 -9 14 -9 8 0 19 -13
24 -29 13 -36 109 -144 117 -131 7 11 65 -18 65 -32 0 -24 -90 17 -155 69 -75
61 -276 205 -280 201 -7 -7 272 -218 420 -318 192 -128 221 -142 313 -151 59
-5 95 -14 128 -33 l46 -26 61 37 c63 38 136 107 325 308 115 122 175 203 230
310 17 33 39 69 49 80 11 11 48 58 84 106 74 97 105 184 89 249 -17 71 -41
153 -46 161 -3 5 2 9 11 9 12 0 15 5 10 18 -4 9 -10 38 -12 65 -8 67 16 62 56
-12 48 -91 59 -131 86 -310 14 -91 39 -224 56 -295 17 -71 39 -167 49 -215 10
-47 30 -140 44 -206 14 -66 35 -138 46 -160 25 -51 78 -210 85 -255 3 -19 7
-71 9 -114 3 -50 10 -82 18 -87 7 -5 10 -9 7 -9 -4 0 -3 -17 2 -37 24 -97 58
-284 90 -488 11 -71 24 -152 29 -180 5 -27 16 -108 25 -180 8 -71 21 -175 29
-230 21 -143 62 -543 81 -795 9 -118 20 -253 25 -300 27 -234 51 -775 43 -967
l-6 -163 2971 0 2972 0 0 5270 0 5270 -7905 0 -7905 0 0 -3009z m4580 2979 c0
-5 -4 -10 -10 -10 -5 0 -10 -7 -10 -16 0 -14 7 -15 46 -9 41 6 46 5 40 -10 -5
-14 -3 -16 11 -9 10 4 30 8 44 8 17 1 25 6 22 14 -4 8 7 12 37 12 37 0 42 -2
37 -20 -3 -13 0 -20 8 -20 7 0 15 -6 18 -12 2 -7 8 -9 13 -5 5 5 1 13 -9 18
-25 15 -21 26 15 38 34 12 48 7 30 -11 -14 -14 -16 -28 -3 -28 5 0 11 8 13 17
3 19 68 29 68 11 0 -5 9 -6 20 -3 11 3 20 2 20 -4 0 -5 -12 -12 -27 -14 -27
-4 -27 -4 3 -6 17 0 39 -10 49 -21 24 -27 35 -25 35 5 0 14 5 25 10 25 6 0 10
-9 10 -20 0 -21 20 -29 20 -7 0 7 7 4 15 -7 8 -11 15 -16 15 -11 0 6 12 -3 26
-19 21 -22 24 -30 14 -36 -10 -6 -11 -12 -3 -22 7 -7 15 -47 19 -88 10 -93 17
-889 11 -1330 0 -52 0 -324 2 -605 1 -280 0 -699 -3 -930 -4 -231 -8 -602 -11
-825 -3 -223 -8 -502 -10 -620 -3 -118 -8 -577 -11 -1020 -4 -554 -9 -809 -17
-818 -9 -11 -249 -132 -262 -132 -2 0 -28 -11 -57 -24 -193 -87 -441 -186
-468 -186 -9 0 -10 96 -6 433 4 237 8 477 11 532 2 55 7 170 10 255 3 85 7
211 10 280 3 69 8 276 11 460 4 184 8 367 9 405 1 39 3 180 4 315 1 135 6 391
11 570 5 179 12 453 15 610 3 157 9 366 15 465 5 99 9 203 9 230 -1 28 -1 94
0 148 1 54 -3 106 -8 115 -20 40 -20 95 0 142 16 37 19 59 14 111 -9 93 -7
113 15 172 18 50 22 72 36 204 10 92 -3 171 -32 200 -44 44 -57 81 -50 142 3
31 9 83 12 116 2 33 7 66 9 73 2 7 0 23 -5 37 -6 16 -6 43 1 77 15 73 18 128
7 128 -5 0 -7 8 -4 18 3 9 8 71 12 137 3 66 10 125 15 131 7 8 6 14 0 18 -9 6
-8 29 5 94 2 12 12 23 22 23 16 1 16 2 0 6 -29 7 -20 23 13 23 24 0 30 4 25
15 -3 9 1 15 11 15 12 0 13 3 3 15 -9 11 -9 17 2 29 15 18 28 20 28 6z m3751
-897 c13 -15 12 -15 -8 -4 -24 12 -29 21 -14 21 5 0 15 -7 22 -17z m-704 -19
c-3 -3 -12 -4 -19 -1 -8 3 -5 6 6 6 11 1 17 -2 13 -5z m122 -60 c14 -12 -19
-1 -35 12 -18 14 -18 14 6 3 14 -6 27 -13 29 -15z m-7569 -384 c0 -5 -4 -10
-10 -10 -5 0 -10 5 -10 10 0 6 5 10 10 10 6 0 10 -4 10 -10z m123 -36 c-3 -8
-12 -14 -20 -14 -12 0 -13 3 -4 14 6 7 9 22 5 32 -5 18 -5 18 9 1 9 -11 13
-25 10 -33z m-58 7 c-8 -14 -42 -14 -51 0 -5 8 1 10 20 7 14 -3 26 -1 26 5 0
6 3 8 6 4 3 -3 3 -10 -1 -16z m375 4 c0 -1 -9 -5 -20 -8 -12 -3 -20 0 -20 8 0
8 8 11 20 8 11 -3 20 -7 20 -8z m80 5 c0 -5 -4 -10 -10 -10 -5 0 -10 5 -10 10
0 6 5 10 10 10 6 0 10 -4 10 -10z m-295 -27 c-27 -19 -37 -16 -18 6 9 11 21
17 26 14 6 -3 2 -12 -8 -20z m95 13 c-25 -15 -45 -12 -35 5 4 5 18 9 33 9 l27
-1 -25 -13z m-140 -6 c0 -5 -7 -10 -16 -10 -8 0 -12 5 -9 10 3 6 10 10 16 10
5 0 9 -4 9 -10z m200 0 c0 -5 -4 -10 -10 -10 -5 0 -10 5 -10 10 0 6 5 10 10
10 6 0 10 -4 10 -10z m277 -14 c-9 -9 -23 -12 -38 -9 -21 6 -22 7 -3 14 10 4
27 8 37 8 16 1 17 -1 4 -13z m-309 -14 c2 -7 -3 -12 -12 -12 -9 0 -16 7 -16
16 0 17 22 14 28 -4z m-68 -2 c0 -5 -5 -10 -11 -10 -5 0 -7 5 -4 10 3 6 8 10
11 10 2 0 4 -4 4 -10z m134 2 c8 -13 -9 -33 -25 -30 -33 7 -32 38 1 38 10 0
21 -4 24 -8z m44 -20 c2 -15 -2 -22 -12 -22 -11 0 -16 9 -16 26 0 31 23 28 28
-4z m52 8 c0 -5 -7 -10 -16 -10 -8 0 -12 5 -9 10 3 6 10 10 16 10 5 0 9 -4 9
-10z m110 -11 c0 -14 -17 -10 -23 5 -4 10 -1 13 9 9 7 -3 14 -9 14 -14z m-51
-8 c8 -5 10 -14 6 -21 -6 -10 -1 -11 19 -6 15 4 26 2 26 -4 0 -5 -13 -10 -30
-10 -23 0 -30 5 -30 19 0 11 -6 22 -12 24 -7 3 -8 6 -3 6 6 0 16 -3 24 -8z
m306 -8 c-4 -10 -7 -27 -7 -37 1 -18 0 -19 -16 -1 -13 13 -14 19 -4 22 6 3 12
11 12 19 0 8 5 14 11 14 7 0 8 -7 4 -17z m-195 -8 c0 -18 17 -20 23 -2 2 6 8
9 12 5 9 -9 -34 -50 -45 -43 -11 7 -9 55 1 55 5 0 9 -7 9 -15z m110 -30 c0 -8
-7 -15 -16 -15 -14 0 -14 3 -4 15 7 8 14 15 16 15 2 0 4 -7 4 -15z m118 3 c-2
-6 -10 -14 -16 -16 -7 -2 -10 2 -6 12 7 18 28 22 22 4z m42 -28 c0 -11 -7 -20
-15 -20 -13 0 -13 3 -3 20 7 11 14 20 15 20 2 0 3 -9 3 -20z m6687 -30 c17 0
35 4 38 10 3 5 29 9 58 9 29 -1 96 1 149 4 85 5 99 3 107 -11 8 -14 13 -15 29
-5 27 16 135 20 140 5 2 -7 21 -12 41 -12 21 0 51 -4 67 -9 16 -5 49 -14 74
-21 25 -7 57 -18 71 -26 14 -7 29 -10 33 -7 19 20 61 5 201 -71 17 -9 35 -16
41 -16 6 0 23 -10 37 -22 14 -13 41 -34 60 -48 19 -14 33 -28 31 -31 -2 -3 8
-21 21 -39 14 -19 25 -38 25 -43 0 -5 10 -19 23 -31 34 -34 67 -79 67 -93 0
-7 4 -13 9 -13 5 0 11 -22 15 -49 4 -31 12 -51 22 -55 9 -3 14 -13 10 -21 -3
-8 4 -21 17 -30 12 -8 16 -15 8 -15 -11 0 -11 -3 -1 -15 6 -8 9 -19 5 -25 -3
-5 -3 -16 2 -22 4 -7 8 -15 9 -18 0 -3 6 -18 12 -33 16 -38 16 -40 -13 -33
-24 6 -25 5 -21 -36 2 -25 11 -47 22 -55 10 -7 13 -13 7 -13 -18 0 -22 -37 -7
-66 10 -19 11 -31 4 -38 -17 -17 -12 -33 13 -41 12 -3 17 -9 10 -11 -8 -4 -9
-13 -3 -30 5 -13 7 -30 5 -37 -3 -7 7 -33 22 -57 97 -156 121 -318 87 -579 -9
-73 -11 -117 -5 -125 5 -6 10 -36 11 -66 4 -152 -16 -197 -80 -186 -21 3 -30
2 -21 -3 8 -5 10 -14 6 -21 -5 -8 -4 -11 3 -6 6 3 13 2 17 -4 3 -5 -1 -10 -9
-10 -10 0 -17 -13 -21 -37 -4 -21 -13 -55 -21 -75 -10 -27 -11 -45 -4 -63 14
-38 -7 -122 -44 -175 -18 -25 -31 -55 -30 -67 0 -13 -5 -28 -12 -34 -8 -6 -14
-20 -14 -30 0 -11 -7 -19 -16 -19 -11 0 -15 -6 -11 -20 3 -13 0 -20 -9 -20 -8
0 -14 9 -14 20 0 11 -7 20 -15 20 -8 0 -15 -8 -15 -17 0 -15 -2 -16 -10 -3
-14 22 -12 4 5 -37 12 -29 18 -33 30 -23 8 6 18 9 23 6 6 -3 16 1 23 10 12 14
14 14 20 -3 4 -10 5 -28 2 -40 -4 -18 1 -25 21 -33 19 -7 26 -17 26 -35 0 -29
-7 -31 -32 -8 -11 9 -18 11 -18 5 0 -7 5 -12 11 -12 6 0 9 -14 6 -32 -2 -25
-9 -34 -25 -36 -12 -2 -22 1 -22 7 0 6 -5 11 -12 11 -7 0 -6 -6 4 -17 19 -22
19 -50 0 -58 -23 -8 -35 6 -16 20 16 12 16 13 -4 24 -17 9 -20 17 -15 41 4 22
1 31 -10 36 -9 3 -13 12 -10 20 3 8 0 14 -6 14 -6 0 -11 7 -11 16 0 12 -7 14
-27 10 -21 -5 -35 0 -55 19 -32 30 -38 19 -8 -15 24 -27 25 -40 5 -40 -8 0
-15 -7 -15 -15 0 -8 -9 -24 -19 -34 -18 -18 -19 -18 -39 9 -14 19 -17 31 -10
38 6 6 6 12 0 16 -5 3 -22 -10 -36 -29 -17 -22 -22 -35 -14 -35 8 -1 7 -5 -5
-14 -10 -8 -16 -20 -15 -27 2 -9 -8 -15 -24 -17 -16 -2 -28 -9 -28 -18 0 -8
-8 -14 -17 -14 -12 0 -7 -7 15 -23 33 -25 33 -37 0 -37 -10 0 -18 7 -18 16 0
8 -4 13 -9 9 -5 -3 -12 -1 -16 5 -12 19 -33 11 -28 -10 3 -12 0 -20 -6 -20 -7
0 -9 -4 -6 -10 3 -5 2 -10 -3 -10 -5 0 -8 -17 -7 -37 2 -21 -2 -44 -7 -50 -6
-7 -8 -19 -4 -28 3 -8 2 -14 -2 -13 -4 1 -15 -2 -25 -7 -10 -4 -29 -3 -41 3
-16 7 -27 7 -34 0 -6 -6 -19 -1 -37 17 -20 20 -29 25 -38 16 -15 -15 -27 -14
-27 4 0 19 -10 19 -35 -1 -19 -14 -19 -16 -2 -28 56 -42 -33 -28 -228 36 -110
36 -235 50 -284 30 -23 -9 -47 -11 -75 -5 -22 4 -48 6 -56 5 -8 -2 -30 -3 -49
-2 -57 1 -133 -24 -301 -100 -83 -38 -150 -57 -150 -42 0 4 7 15 15 25 22 30
9 47 -25 34 -24 -9 -32 -8 -48 6 -26 24 -35 21 -28 -8 6 -25 -7 -35 -19 -15
-8 13 -26 3 -24 -13 4 -21 -13 -51 -40 -73 -21 -18 -23 -24 -13 -37 10 -12 11
-21 2 -37 -15 -29 12 -60 52 -60 15 0 36 -5 46 -11 14 -9 27 -5 65 17 26 16
47 34 47 41 0 7 8 16 18 21 23 12 79 25 70 17 -3 -4 1 -15 10 -26 10 -11 19
-15 22 -8 8 12 151 -53 171 -77 10 -12 9 -18 -6 -32 -13 -13 -19 -14 -22 -4
-3 6 -13 12 -23 12 -10 0 -31 15 -48 34 -23 26 -35 33 -55 29 -38 -7 -25 -26
59 -80 48 -31 74 -54 74 -66 0 -14 5 -17 20 -12 16 5 20 2 20 -18 0 -30 41
-70 63 -61 9 3 30 -1 48 -10 17 -8 46 -18 65 -22 19 -3 34 -11 34 -16 0 -18
111 -4 122 15 11 20 48 22 67 5 11 -11 13 -9 9 9 -4 16 0 22 16 26 66 16 136
54 136 74 0 8 12 13 29 13 28 0 29 -2 26 -37 -3 -42 25 -78 72 -89 15 -4 47
-16 70 -27 75 -34 91 -8 48 77 -25 49 -25 66 0 66 8 0 17 11 21 25 3 14 10 22
15 19 5 -3 18 -2 30 1 14 5 18 12 14 26 -4 11 -1 26 5 34 6 8 9 19 5 25 -3 5
1 13 10 16 10 4 15 14 12 25 -5 17 1 19 44 19 27 0 49 4 49 9 0 5 7 16 15 24
8 8 20 37 26 64 13 55 45 123 66 139 11 10 8 16 -17 37 -16 14 -30 30 -30 36
0 21 19 11 46 -24 28 -37 64 -47 64 -18 0 14 4 13 21 -6 12 -12 18 -25 14 -29
-3 -3 -9 -1 -13 5 -8 13 -52 6 -52 -8 0 -5 9 -9 20 -9 11 0 23 -7 26 -15 7
-17 24 -20 24 -5 0 5 7 18 17 29 12 15 21 17 39 11 18 -7 22 -6 18 5 -3 7 4
18 15 25 12 6 21 17 21 24 0 8 6 19 14 25 11 9 15 6 20 -14 4 -14 4 -30 1 -36
-4 -5 2 -12 12 -15 10 -3 26 -10 35 -15 10 -5 22 -9 28 -9 15 0 12 26 -4 40
-12 9 -13 18 -5 38 13 33 28 43 56 35 16 -3 23 -1 23 10 0 21 22 27 43 12 11
-8 17 -26 17 -51 l-1 -39 -23 29 c-14 16 -29 26 -35 21 -7 -4 -19 -1 -28 7
-14 11 -15 10 -8 -11 7 -22 39 -61 47 -58 2 1 -4 -5 -13 -13 -18 -17 -31 -80
-17 -80 5 0 6 -5 3 -10 -3 -6 -17 -7 -31 -4 -14 4 -24 2 -24 -5 0 -6 9 -11 20
-11 11 0 20 -4 20 -10 0 -5 -7 -7 -16 -3 -14 5 -16 1 -12 -20 6 -29 -15 -67
-28 -54 -5 4 -2 12 6 17 12 8 12 10 -3 16 -23 8 -72 -39 -63 -62 3 -8 3 -14
-1 -12 -5 3 -23 10 -40 17 -18 7 -33 17 -33 22 0 5 -13 9 -29 9 -33 0 -47 -25
-36 -61 6 -17 3 -20 -12 -17 -12 2 -22 -5 -30 -24 -11 -25 -32 -34 -65 -29 -4
0 -25 -8 -45 -18 -21 -11 -52 -22 -70 -26 -26 -5 -32 -3 -38 14 -6 21 -25 29
-25 11 0 -5 5 -10 10 -10 6 0 10 -4 10 -10 0 -5 -7 -10 -16 -10 -15 0 -53 -30
-37 -30 18 -1 72 -58 78 -83 4 -14 13 -31 21 -38 8 -6 14 -19 15 -28 1 -21 65
-74 92 -76 12 -1 32 4 44 10 24 13 73 9 73 -5 0 -5 -10 -10 -21 -12 -12 -2
-27 -11 -33 -21 -9 -15 -7 -22 10 -35 11 -10 19 -23 16 -30 -2 -6 2 -12 10
-13 7 0 2 -4 -10 -10 -13 -5 -28 -7 -33 -3 -5 3 -9 -2 -9 -10 0 -22 -22 -20
-43 5 -10 11 -21 18 -24 15 -4 -3 3 -15 15 -26 28 -26 28 -28 -3 -22 -14 2
-25 10 -25 17 0 7 -6 17 -12 23 -18 14 -73 19 -73 7 0 -6 -15 -27 -34 -47 -27
-31 -39 -36 -59 -31 -22 5 -24 3 -19 -16 3 -15 -1 -24 -14 -31 -25 -14 -24
-23 5 -51 31 -30 22 -46 -11 -19 -33 26 -45 25 -72 -4 -24 -26 -46 -25 -68 3
-12 16 -15 12 -17 -23 -1 -23 -26 -34 -26 -12 0 9 -6 13 -14 10 -8 -3 -17 0
-21 6 -5 7 -11 8 -19 1 -8 -7 -12 -4 -13 11 -2 26 -9 32 -25 22 -7 -5 -26 -7
-41 -5 -26 2 -28 1 -17 -18 7 -14 7 -21 0 -21 -5 0 -10 6 -10 14 0 19 -14 28
-33 20 -9 -3 -13 -13 -10 -24 4 -15 0 -19 -26 -18 -17 1 -31 6 -31 13 0 19
-72 76 -88 70 -10 -3 -12 0 -8 10 3 9 0 15 -9 15 -8 0 -15 5 -15 10 0 6 -4 10
-10 10 -5 0 -10 -9 -10 -20 0 -11 7 -20 16 -20 8 0 12 -4 9 -10 -3 -5 -19 -7
-35 -3 -18 3 -30 1 -30 -5 0 -15 -58 -42 -76 -35 -7 3 -14 0 -14 -6 0 -6 -11
-11 -24 -11 -37 0 -56 -10 -56 -30 0 -11 -5 -22 -10 -25 -6 -4 -8 -11 -5 -16
4 -5 -5 -9 -19 -9 -13 0 -32 -3 -41 -7 -15 -5 -16 -3 -6 15 18 33 14 72 -7 72
-10 0 -23 5 -29 11 -7 7 -12 -5 -17 -41 -7 -49 -8 -52 -31 -46 -16 4 -25 2
-25 -5 0 -6 -7 -8 -16 -5 -8 3 -12 2 -9 -4 3 -6 4 -14 0 -19 -10 -17 -79 19
-118 62 -22 24 -35 33 -31 22 7 -19 7 -20 -13 -2 -21 18 -21 18 -27 -1 -8 -24
-36 -38 -36 -18 0 7 -7 19 -15 26 -8 7 -12 16 -10 21 3 4 -4 13 -16 19 -17 9
-20 18 -15 41 4 21 2 29 -8 29 -8 0 -22 3 -30 6 -12 5 -19 -2 -27 -25 -6 -17
-16 -31 -23 -31 -6 0 -19 -9 -29 -20 -22 -26 -33 -25 -59 6 -13 14 -38 32 -56
41 -24 11 -30 19 -22 28 8 9 4 17 -14 29 -14 9 -30 16 -35 16 -6 0 -14 7 -18
15 -5 8 -26 24 -48 35 -22 11 -36 20 -32 20 4 0 3 10 -4 21 -8 16 -8 23 1 29
9 6 9 12 -1 29 -8 11 -18 21 -22 21 -23 0 23 28 56 34 21 4 40 13 43 21 4 11
10 9 25 -6 10 -10 25 -16 34 -13 8 4 15 1 15 -5 0 -6 8 -11 18 -11 10 0 25 -9
35 -20 19 -23 69 -27 86 -7 6 8 8 17 4 20 -3 4 3 7 14 7 19 0 20 4 13 34 -5
25 -3 41 7 55 13 19 12 21 -3 21 -11 0 -15 6 -11 19 2 10 0 25 -5 34 -7 13 -5
15 7 11 9 -4 15 0 15 9 0 12 -10 16 -41 14 -33 -1 -43 -6 -50 -25 -8 -20 -12
-22 -24 -12 -12 10 -15 10 -15 -1 -1 -10 -4 -9 -14 4 -15 20 -32 22 -39 5 -3
-8 -6 -6 -6 5 -1 9 -6 17 -12 17 -5 0 -7 -4 -4 -10 3 -5 -1 -10 -9 -10 -9 0
-16 5 -16 10 0 6 -4 10 -10 10 -5 0 -10 -9 -10 -20 0 -11 -6 -20 -14 -20 -26
0 -28 -19 -6 -47 26 -33 10 -43 -21 -14 -17 16 -21 28 -17 59 4 28 1 45 -13
63 -15 19 -19 20 -19 7 0 -9 5 -20 10 -23 15 -9 12 -25 -4 -25 -7 0 -21 11
-30 25 -9 14 -21 23 -25 21 -9 -6 -33 16 -56 49 -11 17 -16 18 -27 7 -11 -11
-10 -15 5 -23 9 -6 17 -17 17 -25 0 -8 -5 -12 -10 -9 -6 4 -8 10 -6 14 3 4 -6
14 -19 21 -14 7 -25 19 -25 26 0 6 -7 14 -15 18 -24 9 -19 -40 6 -57 11 -9 16
-18 11 -21 -13 -8 -42 20 -42 40 0 8 -4 14 -9 14 -15 0 -23 -18 -11 -25 5 -3
10 -15 10 -26 0 -13 7 -19 25 -20 46 -3 50 -4 47 -22 -2 -11 7 -21 24 -27 24
-10 25 -12 10 -23 -15 -11 -15 -13 3 -24 17 -11 19 -10 14 3 -5 14 -3 15 14 6
11 -6 23 -8 27 -4 4 3 11 0 16 -8 8 -13 10 -12 10 3 0 24 26 21 44 -5 23 -32
20 -41 -11 -35 -33 6 -54 -13 -46 -42 4 -16 2 -20 -10 -15 -23 9 -29 45 -9 60
10 8 12 14 5 14 -6 0 -15 -5 -18 -10 -5 -8 -11 -7 -20 0 -22 19 -39 1 -20 -20
13 -14 13 -19 3 -22 -7 -3 -25 9 -40 25 -30 31 -38 70 -14 61 8 -3 17 -1 20 5
4 6 -16 27 -44 47 -27 20 -50 40 -50 46 0 5 -9 7 -19 3 -13 -4 -21 0 -25 12
-3 10 -15 24 -26 31 -17 10 -20 10 -20 -5 -1 -16 -2 -16 -16 2 -10 13 -14 32
-10 53 2 17 0 32 -5 32 -5 0 -8 16 -6 35 3 23 0 35 -8 35 -8 0 -11 19 -11 55
1 30 -1 55 -4 55 -3 0 -5 20 -6 44 -1 27 -9 55 -22 74 -12 17 -33 54 -47 84
-23 47 -25 61 -19 129 8 91 -7 168 -40 212 -35 46 -45 96 -55 273 -6 97 -16
179 -26 209 -9 28 -20 64 -25 80 l-10 30 21 -27 c11 -16 25 -28 30 -28 5 0 9
12 10 28 0 15 4 36 8 47 12 29 -25 79 -77 104 l-43 21 6 -22 c6 -18 5 -20 -5
-12 -17 17 -14 111 5 140 19 30 68 34 63 6 -2 -11 3 -32 11 -48 7 -16 17 -38
21 -49 4 -11 13 -36 20 -55 6 -19 15 -54 19 -77 4 -23 14 -52 23 -65 27 -42
39 -90 27 -104 -14 -17 -4 -44 16 -44 8 0 15 -5 15 -11 0 -6 -7 -9 -15 -5 -20
7 -19 3 4 -18 17 -15 20 -15 34 -1 12 12 14 22 6 48 -6 17 -12 82 -14 142 -4
106 -11 226 -20 330 -2 28 -6 84 -9 125 -3 41 -9 116 -13 165 -10 137 -1 236
22 255 8 6 21 34 30 61 9 27 21 51 26 54 5 4 6 17 3 30 -3 13 -1 33 6 44 9 18
8 21 -7 21 -15 0 -15 1 2 14 16 11 17 17 7 29 -10 12 -10 16 2 20 10 4 13 16
11 38 -3 18 0 38 6 45 7 9 6 16 -4 25 -12 11 -11 16 4 33 23 24 16 36 -19 37
-27 0 -27 0 -4 10 16 6 22 14 18 27 -4 12 1 21 17 28 12 5 21 15 19 22 -1 7 3
22 9 34 11 20 9 20 -27 13 l-39 -7 26 21 c43 34 77 42 168 39 109 -3 150 15
223 97 80 89 177 179 242 225 19 14 36 28 36 33 0 9 78 80 95 87 7 3 28 19 47
35 66 60 119 89 177 99 24 3 60 15 80 25 54 28 111 37 122 20 8 -12 10 -12 18
0 6 9 24 12 60 9 33 -3 55 0 61 7 8 10 19 10 48 -1 20 -7 51 -13 69 -14z
m-6577 0 c0 -5 -4 -10 -10 -10 -5 0 -10 5 -10 10 0 6 5 10 10 10 6 0 10 -4 10
-10z m100 0 c0 -5 -7 -10 -16 -10 -8 0 -12 5 -9 10 3 6 10 10 16 10 5 0 9 -4
9 -10z m146 -21 c3 -5 -6 -9 -19 -9 -13 0 -24 6 -24 14 0 14 33 10 43 -5z
m8223 -1769 c19 -10 51 -78 51 -108 0 -13 -2 -14 -9 -4 -14 22 -86 -6 -132
-51 -46 -44 -59 -42 -37 5 9 18 30 63 48 101 32 67 44 76 79 57z m-79 -331 c0
-25 60 -113 70 -103 5 5 13 32 18 59 l9 50 7 -57 c9 -62 -10 -170 -49 -278 -7
-19 -16 -61 -19 -92 -4 -32 -12 -58 -17 -58 -5 0 -24 -16 -41 -36 -23 -26 -38
-35 -54 -31 -29 5 -64 -26 -64 -56 0 -35 17 -46 53 -36 31 9 50 3 31 -9 -6 -4
-11 -14 -11 -22 -2 -58 -29 -160 -56 -213 -31 -60 -33 -62 -76 -65 -34 -3 -49
2 -67 19 -13 12 -24 31 -24 41 0 19 -16 51 -40 81 -13 17 -13 20 5 34 14 11
16 17 8 20 -14 5 -18 33 -5 33 13 0 28 53 31 110 2 46 -1 57 -21 72 -20 15
-21 18 -5 18 14 0 17 5 12 20 -4 14 -2 20 8 20 11 0 15 11 15 38 -1 20 4 49
10 64 6 15 9 35 6 43 -4 8 -1 15 6 15 6 0 10 12 9 28 -5 65 9 83 27 35 19 -50
17 -136 -4 -191 -11 -29 -17 -53 -14 -55 4 -2 25 -3 47 -2 37 0 40 3 46 35 4
19 14 39 23 46 9 6 16 16 16 22 0 6 9 16 20 22 17 9 19 18 16 57 -4 32 1 55
14 81 20 37 20 38 -13 86 -11 16 -23 45 -27 65 -4 20 -11 44 -15 54 -5 12 -3
17 9 17 8 0 22 13 31 30 22 43 47 54 62 27 7 -12 12 -29 13 -38z m-336 -510
c-6 -11 -24 -2 -24 11 0 5 7 7 15 4 8 -4 12 -10 9 -15z m-59 -28 c10 -17 -12
-21 -25 -6 -10 12 -10 15 3 15 9 0 18 -4 22 -9z m42 -23 c-3 -8 -6 -5 -6 6 -1
11 2 17 5 13 3 -3 4 -12 1 -19z m-89 -26 c2 -7 -3 -12 -12 -12 -9 0 -16 7 -16
16 0 17 22 14 28 -4z m102 4 c0 -3 -4 -8 -10 -11 -5 -3 -10 -1 -10 4 0 6 5 11
10 11 6 0 10 -2 10 -4z m-43 -57 l3 -44 -15 40 c-18 49 -18 58 -2 53 6 -3 13
-24 14 -49z m-54 11 c-3 -11 -7 -20 -9 -20 -2 0 -4 9 -4 20 0 11 4 20 9 20 5
0 7 -9 4 -20z m-163 -226 c0 -8 -4 -12 -10 -9 -5 3 -10 10 -10 16 0 5 5 9 10
9 6 0 10 -7 10 -16z m31 -7 c-13 -13 -26 -3 -16 12 3 6 11 8 17 5 6 -4 6 -10
-1 -17z m14 -17 c3 -5 -1 -10 -10 -10 -9 0 -13 5 -10 10 3 6 8 10 10 10 2 0 7
-4 10 -10z m255 -14 c0 -3 -4 -8 -10 -11 -5 -3 -10 -1 -10 4 0 6 5 11 10 11 6
0 10 -2 10 -4z m-10 -98 c0 -17 -23 -3 -26 16 -2 14 0 15 12 5 8 -6 14 -16 14
-21z m-130 -83 c0 -8 -4 -15 -10 -15 -5 0 -7 7 -4 15 4 8 8 15 10 15 2 0 4 -7
4 -15z m15 -35 c3 -5 2 -10 -4 -10 -5 0 -13 5 -16 10 -3 6 -2 10 4 10 5 0 13
-4 16 -10z m-1375 -62 c58 0 122 3 143 7 28 5 49 3 78 -10 35 -16 54 -45 29
-45 -5 0 -10 -6 -10 -14 0 -18 -13 -22 -83 -31 -32 -4 -57 -11 -57 -16 0 -5
-12 -4 -27 2 -23 8 -29 6 -52 -21 -27 -33 -45 -36 -196 -29 -16 0 -40 -2 -52
-6 -17 -6 -25 -1 -39 26 -21 42 -38 59 -58 59 -8 0 -20 10 -27 21 -23 45 46
71 166 63 44 -3 127 -6 185 -6z m1067 -83 c28 -14 49 -42 40 -52 -2 -2 -21 13
-41 32 -42 39 -42 41 1 20z m348 -15 c3 -5 2 -10 -4 -10 -5 0 -13 5 -16 10 -3
6 -2 10 4 10 5 0 13 -4 16 -10z m-1255 -40 c0 -5 -4 -10 -9 -10 -6 0 -13 5
-16 10 -3 6 1 10 9 10 9 0 16 -4 16 -10z m385 0 c3 -5 19 -10 35 -10 33 0 49
-17 26 -26 -9 -3 -16 -14 -16 -23 0 -21 -65 -57 -97 -53 -13 2 -36 -4 -51 -14
-18 -12 -27 -13 -30 -6 -2 7 -9 12 -16 12 -6 0 -13 11 -14 25 -1 16 3 25 12
25 8 0 16 8 18 17 6 34 117 78 133 53z m105 0 c0 -5 -2 -10 -4 -10 -3 0 -8 5
-11 10 -3 6 -1 10 4 10 6 0 11 -4 11 -10z m-1778 -151 c23 -46 22 -49 -8 -49
-24 0 -25 2 -13 17 10 11 10 14 2 9 -8 -4 -13 -2 -13 6 0 7 -3 24 -7 37 -9 36
18 22 39 -20z m1708 21 c0 -5 -2 -10 -4 -10 -3 0 -8 5 -11 10 -3 6 -1 10 4 10
6 0 11 -4 11 -10z m-1955 -20 c3 -5 1 -10 -4 -10 -6 0 -11 5 -11 10 0 6 2 10
4 10 3 0 8 -4 11 -10z m95 -20 c8 -5 12 -11 9 -14 -3 -3 -14 1 -25 9 -21 16
-8 20 16 5z m1690 0 c0 -5 -5 -10 -11 -10 -5 0 -7 5 -4 10 3 6 8 10 11 10 2 0
4 -4 4 -10z m-1676 -42 c-3 -4 -11 -5 -19 -1 -21 7 -19 12 4 10 11 0 18 -5 15
-9z m1720 -34 c3 -8 2 -12 -4 -9 -6 3 -10 10 -10 16 0 14 7 11 14 -7z m-1736
-100 c-10 -10 -28 6 -28 24 0 15 1 15 17 -1 9 -9 14 -19 11 -23z m117 26 c3
-5 -1 -10 -10 -10 -9 0 -13 5 -10 10 3 6 8 10 10 10 2 0 7 -4 10 -10z m55 -60
c-8 -5 -18 -6 -24 -3 -5 4 -1 10 10 13 24 9 34 2 14 -10z m55 -110 c-3 -5 -10
-10 -16 -10 -5 0 -9 5 -9 10 0 6 7 10 16 10 8 0 12 -4 9 -10z m88 -80 c-5 -20
-15 -25 -26 -13 -8 7 11 33 23 33 5 0 6 -9 3 -20z m1127 -90 c0 -5 -9 -6 -20
-3 -11 3 -17 9 -15 14 7 10 35 1 35 -11z m202 -17 c29 -35 32 -47 5 -27 -27
20 -43 44 -28 44 4 0 15 -8 23 -17z m-1209 0 c-7 -2 -13 -12 -13 -21 0 -13 -3
-13 -12 -4 -10 10 -10 15 2 22 8 5 20 9 25 9 6 0 4 -3 -2 -6z m917 -35 c0 -12
-35 -9 -48 4 -25 25 -13 38 18 20 16 -9 30 -20 30 -24z m526 15 c-7 -7 -26 7
-26 19 0 6 6 6 15 -2 9 -7 13 -15 11 -17z m-269 -38 c-4 -8 -11 -15 -17 -15
-7 0 -7 6 0 21 13 23 26 19 17 -6z m-450 -1 c-3 -3 -12 -4 -19 -1 -8 3 -5 6 6
6 11 1 17 -2 13 -5z m-672 -14 c3 -5 -1 -10 -9 -10 -9 0 -16 5 -16 10 0 6 4
10 9 10 6 0 13 -4 16 -10z m115 -26 c0 -17 -36 -19 -46 -2 -5 8 0 9 15 5 17
-4 21 -2 17 9 -3 9 -1 12 4 9 6 -3 10 -13 10 -21z m83 -1 c-7 -2 -19 -2 -25 0
-7 3 -2 5 12 5 14 0 19 -2 13 -5z m157 -8 c0 -8 -4 -15 -9 -15 -13 0 -22 16
-14 24 11 11 23 6 23 -9z m120 -6 c0 -14 -17 -10 -23 5 -4 10 -1 13 9 9 7 -3
14 -9 14 -14z m350 11 c0 -5 -2 -10 -4 -10 -3 0 -8 5 -11 10 -3 6 -1 10 4 10
6 0 11 -4 11 -10z m-662 -44 c4 -35 -14 -26 -20 9 -4 16 -1 24 6 22 6 -2 12
-16 14 -31z m269 8 c-3 -3 -12 -4 -19 -1 -8 3 -5 6 6 6 11 1 17 -2 13 -5z
m253 -4 c0 -5 -4 -10 -10 -10 -5 0 -10 5 -10 10 0 6 5 10 10 10 6 0 10 -4 10
-10z m1336 -42 c-4 -24 -11 -47 -16 -52 -12 -12 -43 1 -35 14 4 6 11 7 17 4 6
-4 8 -2 4 4 -3 6 -2 13 4 17 5 3 10 17 10 31 0 13 5 24 11 24 8 0 9 -14 5 -42z
m-1586 -18 c0 -5 -2 -10 -4 -10 -3 0 -8 5 -11 10 -3 6 -1 10 4 10 6 0 11 -4
11 -10z m1523 3 c8 -7 -23 -32 -41 -33 -10 0 -10 5 -2 20 11 20 31 26 43 13z
m20 -49 c9 -4 17 -13 17 -22 0 -27 -42 -104 -92 -170 -26 -35 -48 -67 -48 -72
0 -5 -6 -15 -12 -22 -24 -25 -79 -108 -72 -108 4 0 -5 -9 -20 -21 -14 -11 -26
-26 -26 -32 0 -6 -22 -33 -50 -59 -27 -26 -50 -52 -50 -58 0 -6 -20 -19 -45
-30 -28 -12 -43 -24 -40 -32 4 -9 -4 -14 -22 -16 -16 -1 -34 -11 -42 -22 -8
-12 -25 -20 -41 -20 -38 0 -60 -9 -60 -25 0 -16 -100 -27 -117 -13 -7 5 -16 7
-22 4 -5 -3 -11 1 -15 9 -3 9 0 15 9 15 12 0 12 3 -2 18 -10 10 -29 17 -43 15
-18 -2 -19 -1 -6 3 11 4 26 12 34 20 7 8 24 14 38 14 14 0 27 7 30 15 4 9 19
15 35 15 16 0 29 5 29 13 1 22 47 47 81 43 37 -4 69 18 52 35 -7 7 -16 3 -27
-12 -8 -13 -18 -20 -22 -17 -7 8 61 78 76 78 16 0 11 32 -7 46 -16 12 -16 15
-3 24 8 5 11 10 5 11 -5 0 -1 4 10 9 19 8 19 9 -2 9 -25 1 -31 16 -10 24 9 4
8 8 -3 16 -12 9 -11 11 9 11 19 0 23 4 19 25 -3 14 -1 25 3 25 5 0 9 -9 9 -20
0 -11 6 -20 13 -20 9 0 12 11 9 36 -3 26 1 39 14 49 17 13 17 14 2 15 -9 0
-20 5 -23 10 -4 6 11 10 37 9 24 0 37 -3 30 -6 -6 -2 -10 -9 -6 -14 8 -14 44
-11 44 4 0 19 39 39 63 31 20 -5 20 -5 5 7 -23 18 -11 36 27 43 17 2 32 5 35
6 3 0 -6 7 -20 15 l-25 14 32 1 c17 0 43 4 57 10 24 9 26 7 26 -16 0 -16 4
-23 11 -18 6 3 9 15 6 25 -3 11 0 19 6 20 7 1 1 5 -13 9 l-25 8 28 1 c15 1 30
8 34 17 3 8 12 13 19 10 8 -3 14 1 14 10 0 9 5 13 13 10 6 -3 20 -9 30 -12z
m-463 -229 c0 -8 -4 -15 -9 -15 -13 0 -22 16 -14 24 11 11 23 6 23 -9z m-970
-115 c7 -17 25 -45 41 -63 16 -17 29 -36 29 -40 0 -5 7 -15 15 -23 8 -9 15
-23 15 -32 0 -18 1 -19 -63 68 -32 43 -67 103 -67 115 0 17 19 1 30 -25z m70
-30 c0 -5 -4 -10 -10 -10 -5 0 -10 5 -10 10 0 6 5 10 10 10 6 0 10 -4 10 -10z
m834 -16 c-3 -35 -14 -44 -14 -12 0 21 7 38 15 38 1 0 1 -12 -1 -26z m-814
-14 c0 -5 -4 -10 -10 -10 -5 0 -10 5 -10 10 0 6 5 10 10 10 6 0 10 -4 10 -10z"/>
<path d="M4583 10453 c9 -2 23 -2 30 0 6 3 -1 5 -18 5 -16 0 -22 -2 -12 -5z"/>
<path d="M5122 10380 c0 -14 2 -19 5 -12 2 6 2 18 0 25 -3 6 -5 1 -5 -13z"/>
<path d="M8490 7635 c-15 -9 -40 -12 -65 -9 -22 3 -53 0 -70 -7 -16 -7 -38
-11 -48 -10 -16 2 -93 -32 -142 -62 -69 -43 -111 -72 -117 -83 -4 -6 -20 -17
-36 -23 -26 -11 -30 -19 -38 -74 -16 -108 8 -298 40 -319 15 -11 26 -10 26 2
0 6 -6 10 -14 10 -10 0 -12 9 -6 38 9 51 14 58 47 65 16 3 37 9 47 13 16 6 18
4 13 -9 -12 -31 3 -47 42 -47 57 0 91 20 91 53 0 35 13 34 39 -2 24 -33 64
-41 211 -41 47 -1 109 -4 138 -7 48 -5 52 -7 46 -27 -8 -28 -34 -57 -45 -50
-5 3 -9 -1 -9 -10 0 -12 7 -12 49 4 48 17 141 17 141 0 0 -8 51 -32 57 -27 9
10 -10 57 -26 62 -9 2 -22 14 -29 25 -11 18 -9 21 15 31 15 5 37 8 49 5 28 -7
38 4 16 20 -16 12 -16 13 2 20 45 17 64 69 36 98 -5 5 1 17 13 27 l22 18 -24
1 c-17 0 -21 4 -17 15 4 10 -3 19 -19 27 -35 16 -37 33 -4 52 16 9 29 26 29
36 0 26 -53 37 -83 17 -23 -15 -46 -8 -138 39 -14 7 -29 10 -33 7 -3 -4 -16
-7 -27 -8 -16 -1 -26 8 -37 34 -9 20 -15 42 -13 49 1 8 -11 12 -33 12 -28 0
-35 4 -38 22 -4 27 -24 31 -58 13z m135 -145 c4 -6 11 -8 16 -5 5 4 14 -5 21
-19 6 -14 19 -26 28 -26 10 0 23 -6 30 -14 6 -8 21 -16 33 -18 16 -2 23 -13
29 -41 4 -20 14 -47 22 -60 8 -12 18 -44 21 -70 4 -27 14 -51 21 -54 8 -3 14
-11 14 -19 0 -8 -6 -11 -15 -8 -8 4 -12 10 -10 15 3 5 -5 11 -19 15 -14 3 -30
12 -37 20 -6 8 -19 14 -29 14 -10 0 -24 8 -31 17 -12 14 -12 16 0 8 10 -5 12
-4 7 3 -4 7 -16 12 -26 12 -11 0 -48 11 -82 25 -35 13 -91 29 -126 35 -81 14
-237 11 -282 -5 -56 -21 -102 -26 -117 -14 -10 9 -10 15 -2 25 6 8 15 14 20
14 5 0 19 9 32 20 12 12 31 29 42 39 33 30 142 59 270 72 66 6 124 16 130 20
12 12 32 11 40 -1z m252 -92 c-3 -8 -6 -5 -6 6 -1 11 2 17 5 13 3 -3 4 -12 1
-19z m-517 -98 c-20 -13 -53 -13 -45 0 3 6 18 10 33 10 21 0 24 -2 12 -10z
m20 -50 c0 -5 -4 -10 -10 -10 -5 0 -10 5 -10 10 0 6 5 10 10 10 6 0 10 -4 10
-10z m550 -25 c0 -8 -6 -15 -14 -15 -8 0 -16 7 -20 15 -4 10 1 15 14 15 11 0
20 -7 20 -15z"/>
<path d="M7022 7582 c11 -13 10 -14 -10 -8 -13 5 -22 3 -22 -3 0 -6 -7 -11
-16 -11 -12 0 -15 -7 -11 -26 4 -23 2 -25 -27 -22 -17 1 -58 -1 -90 -6 l-60
-8 25 -19 c24 -18 21 -23 -13 -20 -21 3 -23 -10 -6 -27 15 -15 97 -4 120 16
10 8 24 12 33 8 9 -3 30 1 46 9 27 14 35 14 97 -4 37 -10 100 -21 141 -25 51
-3 91 -13 129 -32 62 -30 148 -112 133 -127 -6 -6 -63 -3 -148 8 -147 19 -251
16 -347 -9 -78 -21 -115 -42 -173 -103 -52 -54 -63 -73 -42 -73 7 0 9 -10 5
-25 -7 -28 5 -33 24 -10 7 8 25 15 41 15 16 0 29 5 29 11 0 8 15 10 46 5 41
-5 45 -4 34 10 -12 13 -10 14 13 10 15 -2 37 -12 49 -20 36 -26 111 -21 147 9
16 14 31 36 33 48 4 26 37 36 50 14 4 -9 22 -18 38 -22 16 -4 32 -11 35 -16 4
-5 16 -9 27 -9 12 0 37 -6 56 -12 29 -11 35 -10 43 5 7 11 18 15 32 12 12 -3
40 1 62 9 35 12 40 18 39 43 -3 46 -14 146 -19 173 -7 33 -58 87 -99 104 -18
7 -42 26 -54 42 -38 51 -41 53 -67 48 -14 -2 -36 3 -51 13 -34 22 -100 34
-202 38 -72 2 -81 0 -70 -13z m63 -372 c3 -5 2 -10 -4 -10 -5 0 -13 5 -16 10
-3 6 -2 10 4 10 5 0 13 -4 16 -10z m-210 -50 c3 -5 -1 -10 -10 -10 -9 0 -13 5
-10 10 3 6 8 10 10 10 2 0 7 -4 10 -10z"/>
<path d="M8912 7519 c2 -7 10 -15 17 -17 8 -3 12 1 9 9 -2 7 -10 15 -17 17 -8
3 -12 -1 -9 -9z"/>
<path d="M6736 7395 c-22 -16 -13 -35 17 -35 15 0 18 3 10 11 -6 6 -9 18 -6
25 6 17 3 17 -21 -1z"/>
<path d="M9045 7310 c-3 -5 1 -10 9 -10 9 0 16 5 16 10 0 6 -4 10 -9 10 -6 0
-13 -4 -16 -10z"/>
<path d="M7353 7093 c9 -2 25 -2 35 0 9 3 1 5 -18 5 -19 0 -27 -2 -17 -5z"/>
<path d="M8227 7032 c36 -39 108 -70 203 -88 91 -16 133 -18 125 -4 -6 10 13
14 50 12 18 -2 18 0 -5 19 -23 20 -25 20 -31 2 -4 -10 -8 -12 -8 -6 -1 9 -14
11 -45 7 -27 -4 -46 -2 -50 5 -4 6 -18 11 -31 11 -14 0 -42 6 -62 14 -21 7
-63 21 -93 31 -30 10 -61 20 -68 23 -7 3 -1 -9 15 -26z"/>
<path d="M7100 6926 c-62 -10 -70 -14 -52 -25 14 -8 138 4 174 18 20 7 16 9
-22 12 -25 2 -70 0 -100 -5z"/>
<path d="M8125 6590 c-3 -5 3 -22 13 -37 11 -16 28 -50 38 -76 14 -35 28 -52
52 -64 18 -9 36 -13 39 -9 11 10 -26 76 -69 123 -21 24 -38 47 -38 52 0 13
-28 22 -35 11z"/>
<path d="M7973 6480 c-33 -8 -103 -54 -103 -69 0 -5 -14 -14 -31 -21 -27 -12
-36 -11 -65 5 -31 17 -35 17 -59 1 -16 -11 -25 -26 -25 -43 l0 -27 -38 37
c-59 58 -105 48 -143 -30 -26 -52 -34 -93 -18 -93 5 0 9 -7 9 -15 0 -27 86
-32 183 -11 38 9 85 -18 93 -52 6 -28 15 -53 36 -97 l11 -24 19 21 c10 11 18
27 18 35 0 9 9 14 23 13 12 -1 24 -1 27 0 3 2 25 4 49 4 28 2 48 8 56 19 7 9
16 17 22 17 5 0 28 9 51 20 23 11 53 25 67 30 13 5 30 19 38 32 19 30 31 82
17 73 -5 -3 -10 -2 -10 4 0 17 -73 86 -106 99 -17 8 -37 25 -45 38 -18 34 -37
42 -76 34z"/>
<path d="M9005 6200 c-3 -5 -1 -10 4 -10 6 0 11 5 11 10 0 6 -2 10 -4 10 -3 0
-8 -4 -11 -10z"/>
<path d="M9090 6180 c0 -5 5 -10 10 -10 6 0 10 5 10 10 0 6 -4 10 -10 10 -5 0
-10 -4 -10 -10z"/>
<path d="M8955 5700 c-4 -12 -5 -24 -2 -27 3 -2 8 5 12 17 4 12 5 24 2 27 -3
2 -8 -5 -12 -17z"/>
<path d="M8995 5670 c-3 -5 -1 -10 4 -10 6 0 11 5 11 10 0 6 -2 10 -4 10 -3 0
-8 -4 -11 -10z"/>
<path d="M6417 5490 c-3 -11 -1 -20 4 -20 5 0 9 6 9 13 0 9 3 8 9 -2 6 -9 11
-10 15 -2 4 6 4 16 1 21 -10 17 -32 11 -38 -10z"/>
<path d="M6510 5492 c6 -13 14 -21 18 -18 3 4 -2 14 -12 24 -18 16 -18 16 -6
-6z"/>
<path d="M8420 5012 c0 -12 19 -26 26 -19 2 2 -2 10 -11 17 -9 8 -15 8 -15 2z"/>
<path d="M6980 4942 c0 -4 7 -16 15 -26 15 -19 15 -19 15 1 0 11 -7 23 -15 27
-8 3 -15 2 -15 -2z"/>
<path d="M7416 4793 c5 -5 12 -12 16 -18 4 -6 8 -2 8 8 0 9 -7 17 -17 17 -9 0
-12 -3 -7 -7z"/>
<path d="M9408 6199 c-21 -12 -24 -39 -5 -39 14 0 47 31 47 43 0 10 -22 8 -42
-4z"/>
<path d="M8558 4273 c7 -3 16 -2 19 1 4 3 -2 6 -13 5 -11 0 -14 -3 -6 -6z"/>
<path d="M8561 4174 c0 -11 3 -14 6 -6 3 7 2 16 -1 19 -3 4 -6 -2 -5 -13z"/>
<path d="M8560 4130 c0 -5 5 -10 10 -10 6 0 10 5 10 10 0 6 -4 10 -10 10 -5 0
-10 -4 -10 -10z"/>
<path d="M9110 4896 c0 -8 4 -17 9 -20 5 -4 7 3 4 14 -6 23 -13 26 -13 6z"/>
<path d="M7390 4361 c0 -12 29 -35 36 -28 4 3 -1 13 -9 22 -17 17 -27 19 -27
6z"/>
</g>
</svg>
